<?xml version="1.0" standalone="no"?>
<!DOCTYPE svg PUBLIC "-//W3C//DTD SVG 20010904//EN"
 "http://www.w3.org/TR/2001/REC-SVG-20010904/DTD/svg10.dtd">
<svg version="1.0" xmlns="http://www.w3.org/2000/svg"
 width="1920.000000pt" height="1920.000000pt" viewBox="0 0 1920.000000 1920.000000"
 preserveAspectRatio="xMidYMid meet">
<metadata>
Created by potrace 1.14, written by Peter Selinger 2001-2017
</metadata>
<g transform="translate(0.000000,1920.000000) scale(0.100000,-0.100000)"
fill="#000000" stroke="none">
<path d="M8805 18605 c-49 -13 -105 -28 -122 -34 -18 -5 -33 -8 -33 -5 0 2
-23 -8 -51 -23 -29 -16 -63 -34 -78 -42 -14 -8 -27 -18 -29 -22 -2 -4 -27 -22
-55 -40 -54 -34 -125 -89 -191 -149 -21 -19 -44 -33 -50 -32 -6 2 -8 0 -3 -4
4 -4 0 -15 -8 -24 -14 -16 -25 -13 -158 42 -154 65 -354 125 -512 154 -81 15
-149 19 -360 19 -228 0 -275 -3 -383 -23 -217 -40 -459 -131 -606 -229 -39
-26 -73 -48 -76 -48 -9 -1 -45 -24 -37 -25 4 0 -11 -16 -33 -36 -44 -40 -124
-65 -112 -36 4 11 1 13 -7 7 -10 -6 -11 -3 -1 14 6 12 15 19 21 16 5 -4 8 -3
7 2 -3 8 39 67 70 99 7 8 10 14 7 14 -4 0 4 15 17 33 38 50 41 57 24 57 -22 0
-245 -218 -310 -303 -71 -93 -181 -279 -202 -340 -9 -28 -20 -45 -26 -41 -6 4
-8 2 -5 -4 4 -5 3 -21 -2 -34 l-10 -23 0 23 c-1 13 -5 21 -11 17 -5 -3 -7 -12
-4 -19 3 -7 -3 -19 -13 -27 -16 -13 -17 -12 -4 4 7 9 9 17 3 17 -8 0 22 136
53 238 4 12 3 22 -2 22 -14 0 -46 -47 -83 -120 -134 -265 -206 -667 -171 -950
10 -81 13 -143 9 -184 -1 -18 -2 -18 -15 0 -7 10 -13 22 -13 27 0 4 -4 5 -10
2 -6 -4 -11 8 -12 27 -3 56 -4 63 -10 73 -11 17 -45 279 -64 489 -3 37 -9 64
-14 60 -4 -5 -18 -47 -30 -94 -17 -65 -24 -123 -27 -250 -8 -245 21 -417 103
-633 19 -50 32 -92 29 -95 -3 -3 -5 0 -5 7 0 7 -5 9 -10 6 -6 -4 -19 -1 -28 6
-14 11 -15 11 -4 -1 6 -8 12 -19 12 -24 -1 -6 -9 0 -20 13 -11 12 -17 28 -13
34 3 6 1 7 -5 3 -6 -3 -24 12 -40 36 -36 52 -80 94 -88 85 -4 -3 4 -35 16 -69
29 -79 169 -361 184 -370 6 -4 7 -8 2 -8 -5 0 -3 -7 4 -15 7 -8 9 -23 6 -32
-4 -10 -4 -14 0 -11 9 10 33 -17 37 -41 2 -11 11 -29 20 -39 9 -10 17 -23 17
-28 0 -4 -7 2 -16 14 -14 21 -17 22 -28 7 -10 -15 -21 -8 -81 57 -39 40 -102
117 -142 170 -40 53 -77 100 -83 103 -24 15 -22 -8 5 -77 58 -153 159 -311
258 -407 26 -24 43 -49 40 -54 -3 -6 -2 -7 4 -4 11 7 52 -31 52 -48 0 -5 5
-11 13 -13 9 -2 8 0 -2 7 -8 6 -10 11 -4 11 16 0 35 -25 27 -34 -4 -4 1 -4 11
0 14 5 17 4 12 -4 -4 -7 -1 -12 9 -12 10 0 13 -5 9 -12 -4 -7 -3 -8 4 -4 7 4
23 -4 37 -18 14 -14 25 -23 25 -20 0 2 19 -7 41 -22 56 -35 218 -98 315 -122
102 -26 192 -39 331 -48 62 -3 110 -11 107 -15 -3 -5 -11 -6 -17 -3 -7 4 -9 4
-5 -1 9 -9 -131 -161 -144 -157 -5 1 -7 -2 -3 -7 6 -10 -125 -176 -168 -213
-11 -10 -17 -18 -13 -18 4 0 1 -7 -6 -15 -17 -19 -30 -37 -43 -58 -5 -9 -41
-62 -80 -119 -38 -56 -72 -107 -74 -113 -2 -5 -9 -17 -16 -25 -16 -19 -121
-223 -159 -310 -40 -90 -49 -112 -85 -215 -18 -49 -36 -99 -41 -110 -64 -149
-110 -290 -102 -317 1 -5 -2 -8 -6 -8 -5 0 -9 -17 -10 -38 -1 -21 -9 -59 -18
-83 -23 -65 -24 -69 -50 -254 -14 -98 -18 -198 -18 -540 -1 -231 3 -463 7
-515 25 -288 61 -567 103 -785 8 -44 19 -98 23 -120 4 -23 10 -45 14 -51 3 -6
20 -78 36 -160 17 -82 38 -171 46 -199 115 -359 147 -672 90 -860 -9 -27 -15
-51 -15 -52 2 -25 -3 -45 -16 -57 -8 -9 -13 -16 -9 -16 7 0 -20 -52 -61 -118
-19 -28 -33 -55 -33 -58 0 -4 -3 -10 -8 -13 -13 -10 -93 -157 -93 -172 0 -4
-5 -20 -11 -36 -6 -15 -10 -28 -9 -28 0 0 -8 -26 -19 -58 -38 -111 -62 -275
-62 -439 -1 -139 2 -161 26 -238 28 -90 59 -151 107 -212 17 -22 26 -43 22
-50 -4 -7 -3 -10 1 -5 5 4 25 -8 44 -27 47 -45 189 -146 206 -146 7 0 17 -6
24 -13 8 -10 -4 -25 -55 -65 -35 -29 -68 -52 -72 -52 -4 -1 -24 -22 -45 -48
-20 -26 -60 -74 -87 -107 -28 -33 -63 -82 -79 -110 -32 -55 -78 -184 -85 -243
-3 -20 -10 -62 -17 -92 -17 -80 -18 -120 -7 -270 10 -144 47 -341 77 -415 7
-16 14 -34 15 -40 5 -20 61 -130 74 -143 7 -8 10 -18 7 -23 -4 -5 -1 -9 4 -9
6 0 11 -7 11 -15 0 -8 5 -15 12 -15 6 0 9 -2 6 -5 -7 -7 27 -48 127 -154 44
-46 74 -81 67 -76 -10 5 -13 1 -10 -13 3 -18 -67 -125 -108 -166 -7 -8 -10
-16 -7 -20 3 -3 -2 -8 -11 -12 -9 -3 -13 -10 -10 -15 3 -5 1 -9 -5 -9 -24 0
-95 -157 -141 -311 -61 -208 -68 -523 -14 -719 23 -84 75 -221 165 -431 95
-224 118 -287 135 -379 9 -47 22 -110 30 -140 8 -30 14 -82 13 -116 -2 -66 7
-104 22 -104 11 0 90 60 125 95 12 12 25 31 28 43 4 12 12 22 18 22 6 0 9 2 6
5 -3 3 14 40 38 83 24 42 44 81 44 87 0 6 9 16 19 22 18 11 22 6 50 -60 37
-89 55 -193 47 -262 -3 -30 -20 -91 -36 -137 -17 -46 -32 -89 -33 -95 -2 -7
-15 -31 -30 -54 -15 -22 -27 -46 -27 -53 0 -7 -27 -43 -60 -79 -33 -36 -60
-70 -60 -76 0 -21 163 -13 227 10 32 12 60 25 63 30 3 4 12 9 20 11 8 2 28 15
44 30 36 32 39 30 89 -76 21 -44 47 -92 58 -107 11 -15 18 -33 17 -40 -2 -7 2
-13 9 -14 21 0 160 -195 208 -290 54 -108 64 -185 35 -278 -10 -31 -13 -54 -8
-51 15 9 -11 -35 -44 -78 -16 -21 -27 -42 -23 -48 3 -5 27 -10 53 -10 90 0
186 66 237 163 11 20 23 37 28 37 4 0 5 5 2 10 -3 6 -2 10 4 10 6 0 8 8 5 18
-5 14 -4 15 5 2 9 -13 12 -13 20 -1 6 9 13 -10 21 -59 26 -151 105 -392 170
-515 96 -184 199 -339 214 -324 4 4 -3 49 -15 100 -26 115 -28 234 -6 310 17
58 53 113 67 104 5 -3 10 0 12 6 2 7 17 0 36 -16 18 -15 31 -34 28 -41 -3 -8
0 -13 5 -11 15 3 64 -90 90 -169 39 -121 23 -297 -37 -400 -29 -50 -30 -70 -4
-77 11 -3 20 -1 20 4 0 5 3 8 8 7 4 -2 34 11 67 27 140 71 234 222 235 378 0
32 4 46 11 41 6 -3 8 -17 4 -33 -6 -25 -6 -25 8 -6 8 10 13 26 10 35 -3 8 5 0
16 -19 21 -31 43 -115 34 -125 -2 -2 3 -26 11 -52 9 -28 20 -119 25 -209 14
-222 43 -301 150 -397 53 -48 99 -66 108 -42 3 7 -3 46 -12 86 -18 81 -14 133
16 211 31 79 135 217 163 217 6 0 3 -7 -6 -14 -21 -16 -24 -27 -4 -20 11 4 14
-9 15 -68 0 -82 28 -178 82 -278 45 -84 59 -80 59 20 0 84 29 194 56 216 8 6
14 17 14 25 1 29 18 -17 35 -95 25 -114 80 -261 125 -333 92 -148 259 -347
276 -330 4 4 0 24 -9 44 -48 112 -50 223 -7 355 32 100 50 137 50 106 0 -10 5
-15 13 -12 8 3 17 -12 25 -43 12 -42 32 -88 73 -163 24 -43 61 -79 88 -85 33
-7 42 -20 87 -142 35 -96 129 -288 160 -328 9 -12 18 -16 22 -10 55 79 99 171
148 310 43 122 64 161 86 162 45 4 128 115 173 233 33 88 50 95 77 32 55 -123
62 -240 24 -373 -14 -46 -23 -86 -21 -88 7 -6 69 51 98 90 16 22 34 36 39 32
6 -3 8 -2 5 4 -3 5 16 40 43 76 77 106 216 397 244 509 8 36 33 36 47 1 9 -26
20 -136 23 -235 0 -27 3 -48 6 -48 12 1 40 28 40 39 0 6 5 11 12 11 6 0 8 3 5
7 -4 3 0 17 8 29 36 55 65 171 65 258 0 56 4 86 11 86 6 0 9 -7 6 -14 -4 -10
-1 -13 9 -9 7 3 14 0 14 -6 0 -6 5 -11 10 -11 10 0 25 -15 88 -84 28 -31 59
-108 63 -156 1 -19 -1 -74 -6 -122 -11 -124 -8 -127 64 -79 32 22 73 57 89 77
56 68 100 245 101 409 1 89 19 225 32 240 5 5 9 20 9 33 0 15 4 21 12 16 7 -4
8 -3 4 4 -4 6 1 28 9 49 14 33 18 36 26 20 6 -9 11 -50 13 -90 1 -48 8 -84 21
-107 11 -19 19 -37 20 -40 1 -15 69 -101 104 -133 40 -36 123 -83 172 -97 48
-14 53 2 21 66 -46 91 -62 158 -62 256 0 63 6 106 21 151 26 78 99 208 112
200 6 -3 7 -1 4 4 -8 13 18 36 44 38 27 2 55 -48 80 -141 22 -85 21 -118 -7
-272 -21 -116 -17 -125 31 -61 90 120 206 350 260 516 33 100 75 270 75 305 0
15 5 30 10 33 6 4 10 3 9 -2 -3 -18 1 -36 8 -30 3 4 13 1 21 -6 13 -10 14 -9
7 2 -5 10 -4 12 3 7 7 -4 12 -13 12 -20 0 -15 64 -101 95 -129 37 -33 119 -67
162 -67 48 0 62 14 39 39 -9 10 -16 25 -16 33 0 9 -6 18 -14 21 -8 3 -24 36
-36 73 -48 143 -9 259 172 511 67 92 134 197 150 233 59 132 53 129 135 66 75
-56 129 -76 207 -76 105 0 114 9 66 70 -16 20 -26 41 -22 45 4 5 2 5 -5 2 -16
-10 -76 63 -112 137 -69 139 -86 325 -42 460 23 71 57 146 66 146 3 0 -2 -14
-11 -31 -11 -23 -12 -29 -2 -23 7 5 17 9 23 9 5 0 12 11 16 25 4 14 7 18 8 8
1 -9 4 -25 7 -35 5 -15 4 -15 -5 -3 -6 8 -11 10 -11 4 0 -6 7 -17 15 -24 9 -7
14 -19 11 -27 -3 -7 0 -13 6 -13 6 0 8 -3 5 -6 -3 -4 5 -26 19 -50 14 -24 23
-48 19 -54 -4 -6 -2 -9 4 -8 5 2 28 -19 50 -47 54 -66 86 -98 122 -119 29 -17
29 -17 29 6 5 304 28 400 186 755 73 164 145 375 171 498 23 110 23 332 -1
499 -14 100 -28 152 -58 225 -48 115 -85 188 -112 219 -11 12 -17 22 -13 22 3
0 -3 10 -13 22 -11 13 -47 61 -81 107 -46 64 -58 86 -47 92 39 24 137 135 189
214 32 50 63 96 69 102 6 7 10 15 9 18 -2 11 45 115 51 115 4 0 7 6 8 13 0 6
15 66 32 132 30 117 31 126 33 365 l2 245 -37 116 c-52 161 -139 309 -237 403
-22 22 -38 43 -35 48 3 5 1 7 -5 6 -5 -2 -38 16 -73 38 -35 23 -78 50 -97 62
l-34 20 32 16 c17 9 36 14 41 11 6 -3 10 -2 10 2 0 5 17 17 38 28 67 36 192
169 192 205 0 4 3 10 8 12 11 5 50 97 68 163 25 90 31 385 10 497 -31 165 -51
215 -189 463 -99 178 -100 178 -133 290 -37 126 -50 256 -36 362 27 202 44
285 120 594 81 324 97 403 127 599 55 363 56 378 62 850 8 705 -8 855 -142
1305 -13 44 -26 91 -29 105 -25 138 -214 553 -362 795 -37 61 -67 116 -67 123
0 6 -3 10 -5 7 -9 -8 -53 65 -47 75 4 6 2 9 -3 8 -8 -3 -112 124 -112 136 0 2
-15 21 -32 41 -18 20 -33 44 -33 53 0 9 -5 17 -12 17 -6 0 -29 20 -49 45 -21
25 -66 75 -102 111 -42 44 -62 71 -57 80 5 7 4 10 -2 6 -6 -4 -19 3 -29 15
-11 12 -14 18 -7 15 6 -4 18 2 27 15 11 15 16 18 16 8 0 -10 3 -11 8 -4 4 6
79 21 167 33 234 32 278 39 405 71 63 15 132 31 153 35 21 3 78 28 127 54 210
115 390 315 440 492 10 34 0 37 -25 9 -10 -11 -22 -17 -28 -13 -6 4 -7 1 -2
-6 8 -15 -91 -121 -113 -121 -7 0 -11 -3 -9 -7 3 -5 -2 -15 -11 -23 -14 -13
-15 -12 -10 2 4 8 2 20 -4 26 -6 6 -6 12 3 17 8 6 10 4 4 -5 -5 -8 -4 -11 3
-7 5 4 8 16 5 27 -3 11 0 20 6 20 6 0 11 5 11 11 0 18 41 70 50 64 5 -3 12 0
16 6 4 8 3 9 -4 5 -7 -4 -12 -2 -12 3 0 6 4 11 9 11 5 0 11 9 14 21 4 13 10
18 18 13 7 -4 10 -3 5 4 -3 6 16 55 44 108 62 121 67 156 13 98 -20 -21 -36
-42 -35 -46 1 -4 -4 -5 -12 -2 -7 3 -16 -2 -20 -11 -4 -11 -2 -14 7 -8 6 4 -1
-8 -17 -27 -16 -19 -33 -34 -38 -32 -5 1 -7 -1 -4 -6 9 -15 -50 -63 -84 -68
-22 -4 -30 -2 -25 5 3 6 12 8 18 5 9 -5 9 -4 0 6 -9 10 0 26 45 76 31 35 57
67 57 71 0 5 10 26 23 47 19 32 26 37 34 25 8 -11 9 -10 4 4 -4 12 4 32 23 55
90 115 226 349 241 416 11 49 58 131 104 179 14 15 26 30 26 33 0 11 37 53 42
49 3 -3 5 1 5 8 0 6 25 54 56 105 61 101 103 202 138 327 12 44 24 87 28 95
10 21 2 52 -12 47 -7 -2 -22 -21 -34 -42 -12 -21 -28 -40 -37 -41 -13 -2 -14
0 -1 20 13 20 13 23 1 23 -8 0 -14 -3 -13 -6 0 -3 -7 -19 -17 -36 -9 -16 -14
-21 -10 -10 3 11 17 49 29 85 12 36 25 58 27 50 3 -8 3 -4 1 9 -2 12 1 38 7
57 21 62 4 58 -52 -12 -58 -73 -187 -204 -201 -204 -5 0 -5 4 -2 10 3 6 -1 7
-10 3 -12 -4 -13 -8 -5 -13 8 -5 2 -15 -19 -29 -17 -12 -31 -18 -31 -13 0 5
-7 9 -15 9 -10 0 -12 -4 -5 -12 7 -9 3 -17 -14 -29 -30 -19 -47 -22 -21 -3 13
10 15 16 6 21 -6 4 -19 2 -29 -6 -9 -7 -3 5 14 27 56 73 96 136 90 142 -3 3
-12 0 -21 -7 -8 -7 -15 -9 -15 -4 0 5 -4 4 -8 -2 -21 -31 -218 -159 -243 -157
-10 1 -23 -5 -30 -13 -6 -8 -19 -14 -29 -14 -9 0 -35 -13 -57 -29 -62 -45 -88
-56 -228 -97 -119 -36 -140 -39 -245 -39 -91 1 -138 7 -223 28 -130 32 -313
107 -455 185 -57 31 -112 61 -123 67 -10 5 -19 13 -19 18 0 4 -4 5 -10 2 -5
-3 -10 -1 -10 5 0 6 -5 8 -10 5 -6 -3 -13 1 -16 9 -3 9 -10 14 -14 11 -5 -3
-15 0 -22 7 -8 7 -38 26 -68 42 -30 16 -57 32 -60 35 -3 4 -97 52 -210 108
-283 140 -502 203 -705 203 -72 0 -84 3 -103 23 -12 13 -19 27 -15 31 5 4 3 6
-3 4 -10 -3 -161 113 -216 165 -10 9 -18 15 -18 11 0 -6 -72 47 -82 61 -5 7
-8 7 -8 0 0 -5 -7 -1 -15 9 -8 11 -15 16 -15 10 0 -5 -7 0 -16 11 -8 11 -17
19 -20 17 -8 -5 -84 41 -84 50 0 5 -4 7 -9 3 -5 -3 -16 1 -24 9 -8 8 -17 12
-21 9 -3 -4 -6 -1 -6 6 0 7 -4 9 -10 6 -5 -3 -10 -1 -10 5 0 6 -4 9 -9 5 -5
-3 -15 0 -23 7 -7 7 -20 14 -28 16 -8 2 -18 9 -22 15 -4 7 -8 9 -8 5 0 -3 -44
11 -97 31 -282 110 -437 140 -767 150 -192 5 -224 4 -396 -20 -102 -15 -213
-35 -245 -45 -43 -14 -59 -16 -62 -7 -3 7 -11 9 -19 6 -35 -13 -5 24 41 51 97
56 145 88 145 97 0 15 -50 9 -145 -16z m5352 -1227 c-3 -8 -6 -5 -6 6 -1 11 2
17 5 13 3 -3 4 -12 1 -19z"/>
<path d="M13860 17371 c0 -10 19 -25 25 -20 1 2 -3 10 -11 17 -8 7 -14 8 -14
3z"/>
<path d="M13545 15809 c-4 -6 -5 -12 -2 -15 2 -3 7 2 10 11 7 17 1 20 -8 4z"/>
<path d="M11030 2050 c0 -5 5 -10 11 -10 5 0 7 5 4 10 -3 6 -8 10 -11 10 -2 0
-4 -4 -4 -10z"/>
<path d="M7730 2021 c0 -6 4 -13 10 -16 6 -3 7 1 4 9 -7 18 -14 21 -14 7z"/>
</g>
</svg>
